<?xml version="1.0" encoding="utf-8"?>
<!-- Generator: Adobe Illustrator 16.0.0, SVG Export Plug-In . SVG Version: 6.00 Build 0)  -->
<!DOCTYPE svg PUBLIC "-//W3C//DTD SVG 1.1//EN" "http://www.w3.org/Graphics/SVG/1.1/DTD/svg11.dtd">
<svg version="1.1" id="Layer_1" xmlns="http://www.w3.org/2000/svg" xmlns:xlink="http://www.w3.org/1999/xlink" x="0px" y="0px"
	 width="17px" height="17px" viewBox="0 0 17 17" enable-background="new 0 0 17 17" xml:space="preserve">
<g>
	<path fill="#FFFFFF" d="M11.336,5.664C10.617,4.945,9.602,4.479,8.5,4.479c-1.1,0-2.115,0.445-2.836,1.185
		C4.945,6.384,4.479,7.4,4.479,8.5c0,1.1,0.466,2.117,1.185,2.835c0.721,0.72,1.736,1.186,2.836,1.186
		c1.102,0,2.117-0.444,2.836-1.186c0.721-0.719,1.186-1.735,1.186-2.835C12.521,7.4,12.077,6.384,11.336,5.664z M10.574,10.574
		c-0.529,0.529-1.27,0.847-2.074,0.847c-0.804,0-1.545-0.317-2.073-0.847C5.897,10.045,5.58,9.305,5.58,8.5s0.317-1.545,0.847-2.074
		C6.955,5.897,7.696,5.58,8.5,5.58c0.805,0,1.545,0.317,2.074,0.847c0.529,0.529,0.848,1.27,0.848,2.074
		S11.104,10.045,10.574,10.574z"/>
	<path fill="#FFFFFF" d="M15.95,7.95h-1.63c-0.296,0-0.55,0.254-0.55,0.55c0,0.296,0.254,0.55,0.55,0.55h1.63
		c0.296,0,0.55-0.254,0.55-0.55C16.5,8.204,16.246,7.95,15.95,7.95z"/>
	<path fill="#FFFFFF" d="M8.5,13.77c-0.296,0-0.55,0.254-0.55,0.551v1.63c0,0.296,0.254,0.55,0.55,0.55
		c0.297,0,0.551-0.254,0.551-0.55v-1.63C9.051,14.023,8.797,13.77,8.5,13.77z"/>
	<path fill="#FFFFFF" d="M14.151,13.389l-1.164-1.164c-0.19-0.211-0.55-0.211-0.762,0c-0.212,0.213-0.212,0.551,0,0.762l1.164,1.165
		c0.212,0.212,0.55,0.212,0.762,0S14.363,13.601,14.151,13.389z"/>
	<path fill="#FFFFFF" d="M8.5,0.5c-0.296,0-0.55,0.254-0.55,0.551V2.68c0,0.296,0.254,0.55,0.55,0.55
		c0.297,0,0.551-0.254,0.551-0.55V1.051C9.051,0.754,8.797,0.5,8.5,0.5z"/>
	<path fill="#FFFFFF" d="M14.172,2.85c-0.211-0.212-0.549-0.212-0.762,0l-1.164,1.164c-0.211,0.211-0.211,0.55,0,0.762
		c0.191,0.212,0.551,0.212,0.762,0l1.164-1.164C14.385,3.4,14.385,3.061,14.172,2.85z"/>
	<path fill="#FFFFFF" d="M2.681,7.95h-1.63C0.754,7.95,0.5,8.204,0.5,8.5c0,0.296,0.233,0.55,0.551,0.55h1.63
		c0.296,0,0.55-0.254,0.55-0.55C3.23,8.204,2.977,7.95,2.681,7.95z"/>
	<path fill="#FFFFFF" d="M4.754,12.225c-0.19-0.211-0.55-0.211-0.762,0l-1.164,1.164c-0.211,0.212-0.211,0.551,0,0.763
		c0.212,0.212,0.551,0.212,0.762,0l1.164-1.165C4.966,12.775,4.966,12.438,4.754,12.225z"/>
	<path fill="#FFFFFF" d="M4.754,4.014L3.59,2.85c-0.211-0.212-0.55-0.212-0.762,0c-0.211,0.211-0.211,0.55,0,0.762l1.164,1.164
		c0.212,0.212,0.551,0.212,0.762,0C4.966,4.564,4.966,4.225,4.754,4.014z"/>
</g>
</svg>
