<?xml version="1.0" encoding="utf-8"?>
<!-- Generator: Adobe Illustrator 16.0.0, SVG Export Plug-In . SVG Version: 6.00 Build 0)  -->
<!DOCTYPE svg PUBLIC "-//W3C//DTD SVG 1.1//EN" "http://www.w3.org/Graphics/SVG/1.1/DTD/svg11.dtd">
<svg version="1.1" id="Layer_1" xmlns="http://www.w3.org/2000/svg" xmlns:xlink="http://www.w3.org/1999/xlink" x="0px" y="0px"
	 width="17px" height="17px" viewBox="0 0 17 17" enable-background="new 0 0 17 17" xml:space="preserve">
<g>
	<path fill-rule="evenodd" clip-rule="evenodd" fill="#FFFFFF" d="M0.5,12.375C0.627,12,0.892,11.867,1.28,11.869
		c1.322,0.012,2.646,0.006,3.968,0.006c0.057,0,0.112,0,0.197,0C4.409,10.756,3.99,9.467,4.267,7.984
		C4.468,6.901,5.034,6.026,5.911,5.36c1.729-1.31,4.182-1.108,5.693,0.453c1.561,1.613,1.681,4.276-0.051,6.062
		c0.073,0,0.128,0,0.183,0c1.328,0,2.656,0.006,3.982-0.006c0.389-0.002,0.654,0.131,0.781,0.506c0,0.082,0,0.166,0,0.25
		c-0.127,0.375-0.393,0.504-0.778,0.504c-4.815-0.006-9.629-0.006-14.443,0c-0.387,0-0.651-0.129-0.778-0.504
		C0.5,12.541,0.5,12.457,0.5,12.375z M5.435,8.813c0,1.662,1.365,3.039,2.991,3.068c1.7,0.031,3.139-1.344,3.139-3.061
		c0-1.698-1.365-3.072-3.061-3.073C6.807,5.747,5.436,7.116,5.435,8.813z"/>
	<path fill-rule="evenodd" clip-rule="evenodd" fill="#FFFFFF" d="M0.5,8.688c0.127-0.375,0.39-0.521,0.777-0.504
		C1.626,8.2,1.974,8.185,2.321,8.188C2.703,8.19,2.976,8.451,2.976,8.813S2.703,9.436,2.321,9.438
		C1.975,9.439,1.626,9.426,1.277,9.441C0.891,9.459,0.627,9.311,0.5,8.938C0.5,8.854,0.5,8.771,0.5,8.688z"/>
	<path fill-rule="evenodd" clip-rule="evenodd" fill="#FFFFFF" d="M16.5,8.938c-0.127,0.373-0.393,0.521-0.778,0.504
		c-0.347-0.016-0.696-0.002-1.046-0.004c-0.382-0.002-0.65-0.264-0.65-0.625s0.269-0.622,0.65-0.625
		c0.35-0.002,0.699,0.012,1.046-0.003c0.386-0.018,0.651,0.129,0.778,0.504C16.5,8.771,16.5,8.854,16.5,8.938z"/>
	<path fill-rule="evenodd" clip-rule="evenodd" fill="#FFFFFF" d="M4.787,4.407C4.766,4.721,4.656,4.914,4.432,5.025
		C4.2,5.139,3.962,5.127,3.774,4.956C3.437,4.645,3.111,4.322,2.802,3.985c-0.221-0.24-0.184-0.606,0.047-0.833
		c0.229-0.223,0.588-0.254,0.822-0.038c0.338,0.311,0.66,0.637,0.971,0.974C4.729,4.182,4.755,4.334,4.787,4.407z"/>
	<path fill-rule="evenodd" clip-rule="evenodd" fill="#FFFFFF" d="M12.924,5.098c-0.325-0.016-0.522-0.125-0.638-0.356
		c-0.117-0.236-0.099-0.478,0.082-0.669c0.302-0.328,0.621-0.645,0.946-0.95c0.242-0.223,0.604-0.198,0.837,0.03
		c0.234,0.231,0.266,0.601,0.035,0.846c-0.3,0.324-0.613,0.636-0.939,0.937C13.148,5.027,12.997,5.063,12.924,5.098z"/>
	<path fill-rule="evenodd" clip-rule="evenodd" fill="#FFFFFF" d="M9.125,2.063c0,0.198,0.002,0.395-0.002,0.593
		C9.118,3.022,8.85,3.291,8.493,3.288C8.146,3.285,7.88,3.018,7.876,2.658c-0.004-0.405-0.005-0.811,0-1.217
		C7.88,1.085,8.153,0.813,8.498,0.813c0.348,0,0.618,0.27,0.625,0.625C9.127,1.646,9.125,1.854,9.125,2.063z"/>
	<path fill-rule="evenodd" clip-rule="evenodd" fill="#FFFFFF" d="M8.484,16.188c-1.62,0-3.24,0-4.859,0
		c-0.4-0.002-0.673-0.27-0.662-0.648c0.009-0.314,0.254-0.574,0.568-0.6c0.053-0.004,0.105-0.002,0.158-0.002
		c3.207,0,6.413,0,9.623,0c0.092,0,0.188,0.004,0.276,0.029c0.303,0.084,0.48,0.359,0.443,0.682
		c-0.031,0.287-0.281,0.52-0.581,0.537c-0.052,0.002-0.103,0.002-0.154,0.002C11.691,16.188,10.088,16.188,8.484,16.188z"/>
</g>
</svg>
