<?xml version="1.0" encoding="utf-8"?>
<!-- Generator: Adobe Illustrator 16.0.0, SVG Export Plug-In . SVG Version: 6.00 Build 0)  -->
<!DOCTYPE svg PUBLIC "-//W3C//DTD SVG 1.1//EN" "http://www.w3.org/Graphics/SVG/1.1/DTD/svg11.dtd">
<svg version="1.1" id="Layer_1" xmlns="http://www.w3.org/2000/svg" xmlns:xlink="http://www.w3.org/1999/xlink" x="0px" y="0px"
	 width="17px" height="17px" viewBox="0 0 17 17" enable-background="new 0 0 17 17" xml:space="preserve">
<g>
	<path fill-rule="evenodd" clip-rule="evenodd" fill="#FFFFFF" d="M6.029,0.493C6.3,0.602,6.514,0.768,6.537,1.08
		c0.01,0.13-0.015,0.272-0.063,0.394C6.013,2.651,5.873,3.866,6.066,5.111c0.253,1.635,1.004,3.011,2.23,4.12
		c1.017,0.919,2.206,1.487,3.559,1.698c1.244,0.195,2.462,0.069,3.638-0.396c0.308-0.122,0.593-0.117,0.831,0.136
		c0.079,0.083,0.123,0.2,0.183,0.303c0,0.093,0,0.188,0,0.28c-0.007,0.008-0.018,0.014-0.021,0.023
		c-0.459,1.192-1.173,2.212-2.116,3.069c-1.192,1.085-2.587,1.766-4.178,2.037c-0.312,0.054-0.628,0.084-0.941,0.125
		c-0.313,0-0.626,0-0.938,0c-0.051-0.01-0.102-0.021-0.152-0.027c-0.299-0.038-0.602-0.06-0.897-0.115
		c-1.824-0.345-3.369-1.2-4.619-2.572c-1.082-1.188-1.756-2.58-2.025-4.165C0.564,9.316,0.534,9.001,0.493,8.688
		c0-0.313,0-0.625,0-0.938c0.01-0.05,0.021-0.1,0.027-0.149c0.055-0.381,0.083-0.768,0.166-1.143c0.496-2.218,1.698-3.96,3.6-5.201
		c0.459-0.299,0.973-0.51,1.462-0.763C5.842,0.493,5.936,0.493,6.029,0.493z M14.437,12.23c-2.826,0.421-5.315-0.287-7.346-2.316
		C5.059,7.883,4.349,5.391,4.771,2.556C2.751,3.913,1.37,6.63,1.97,9.611c0.603,2.998,3.106,5.27,6.221,5.535
		C11.041,15.391,13.385,13.869,14.437,12.23z"/>
</g>
</svg>
